<mxfile host="app.diagrams.net" modified="2021-12-29T10:43:08.699Z" agent="5.0 (Macintosh; Intel Mac OS X 10_15_7) AppleWebKit/537.36 (KHTML, like Gecko) Chrome/96.0.4664.110 Safari/537.36" etag="XxxCKqg-UJYjkPuKmlZc" version="16.1.0" type="github">
  <diagram name="Page-1" id="7a6c530e-6e37-e111-ec74-82921da8cc10">
    <mxGraphModel dx="1415" dy="769" grid="1" gridSize="8" guides="1" tooltips="1" connect="1" arrows="1" fold="1" page="1" pageScale="1.5" pageWidth="1169" pageHeight="826" background="#FFFFFF" math="0" shadow="0">
      <root>
        <mxCell id="0" style=";html=1;" />
        <mxCell id="1" style=";html=1;" parent="0" />
        <mxCell id="K_LD3TBMWtCk_dUfeqcV-1" value="l" style="rounded=1;whiteSpace=wrap;html=1;fillColor=#d5e8d4;strokeColor=#82b366;" parent="1" vertex="1">
          <mxGeometry x="359" y="978" width="879" height="111" as="geometry" />
        </mxCell>
        <mxCell id="K_LD3TBMWtCk_dUfeqcV-15" value="" style="rounded=1;whiteSpace=wrap;html=1;fontSize=16;strokeColor=#d79b00;fillColor=#ffe6cc;" parent="1" vertex="1">
          <mxGeometry x="566" y="986.5" width="642" height="86.5" as="geometry" />
        </mxCell>
        <mxCell id="K_LD3TBMWtCk_dUfeqcV-16" value="GACore" style="text;html=1;strokeColor=none;fillColor=none;align=center;verticalAlign=middle;whiteSpace=wrap;rounded=0;fontSize=13;" parent="1" vertex="1">
          <mxGeometry x="568" y="986.5" width="60" height="30" as="geometry" />
        </mxCell>
        <mxCell id="K_LD3TBMWtCk_dUfeqcV-18" value="GAUI" style="rounded=1;whiteSpace=wrap;html=1;fontSize=13;strokeColor=default;" parent="1" vertex="1">
          <mxGeometry x="1036" y="994" width="148" height="30" as="geometry" />
        </mxCell>
        <mxCell id="K_LD3TBMWtCk_dUfeqcV-32" value="" style="group" parent="1" vertex="1" connectable="0">
          <mxGeometry x="630" y="993" width="384" height="72" as="geometry" />
        </mxCell>
        <mxCell id="K_LD3TBMWtCk_dUfeqcV-17" value="" style="rounded=1;whiteSpace=wrap;html=1;fontSize=13;" parent="K_LD3TBMWtCk_dUfeqcV-32" vertex="1">
          <mxGeometry width="384.00000000000006" height="72" as="geometry" />
        </mxCell>
        <mxCell id="K_LD3TBMWtCk_dUfeqcV-22" value="GAFoundation" style="text;html=1;strokeColor=none;fillColor=none;align=center;verticalAlign=middle;whiteSpace=wrap;rounded=0;fontSize=13;" parent="K_LD3TBMWtCk_dUfeqcV-32" vertex="1">
          <mxGeometry width="154.25641025641028" height="16" as="geometry" />
        </mxCell>
        <mxCell id="K_LD3TBMWtCk_dUfeqcV-24" value="BaseView" style="rounded=1;whiteSpace=wrap;html=1;fontSize=13;strokeColor=#b85450;fillColor=#f8cecc;" parent="K_LD3TBMWtCk_dUfeqcV-32" vertex="1">
          <mxGeometry x="142.38" y="20" width="110" height="36" as="geometry" />
        </mxCell>
        <mxCell id="K_LD3TBMWtCk_dUfeqcV-25" value="Logger" style="rounded=1;whiteSpace=wrap;html=1;fontSize=13;strokeColor=#b85450;fillColor=#f8cecc;" parent="K_LD3TBMWtCk_dUfeqcV-32" vertex="1">
          <mxGeometry x="16.41" y="20" width="110" height="36" as="geometry" />
        </mxCell>
        <mxCell id="K_LD3TBMWtCk_dUfeqcV-26" value="Securer" style="rounded=1;whiteSpace=wrap;html=1;fontSize=13;strokeColor=#b85450;fillColor=#f8cecc;" parent="K_LD3TBMWtCk_dUfeqcV-32" vertex="1">
          <mxGeometry x="264" y="20" width="110" height="36" as="geometry" />
        </mxCell>
        <mxCell id="K_LD3TBMWtCk_dUfeqcV-34" value="" style="rounded=1;whiteSpace=wrap;html=1;fontSize=13;strokeColor=default;" parent="1" vertex="1">
          <mxGeometry x="890" y="864" width="120" height="60" as="geometry" />
        </mxCell>
        <mxCell id="K_LD3TBMWtCk_dUfeqcV-35" value="" style="rounded=1;whiteSpace=wrap;html=1;fillColor=#fff2cc;strokeColor=#d6b656;" parent="1" vertex="1">
          <mxGeometry x="361" y="832" width="870" height="127" as="geometry" />
        </mxCell>
        <mxCell id="K_LD3TBMWtCk_dUfeqcV-36" value="NetworkServer" style="rounded=1;whiteSpace=wrap;html=1;fontSize=13;strokeColor=default;" parent="1" vertex="1">
          <mxGeometry x="390" y="864" width="120" height="60" as="geometry" />
        </mxCell>
        <mxCell id="K_LD3TBMWtCk_dUfeqcV-39" value="WebServer" style="rounded=1;whiteSpace=wrap;html=1;fontSize=13;strokeColor=default;" parent="1" vertex="1">
          <mxGeometry x="540" y="864" width="120" height="60" as="geometry" />
        </mxCell>
        <mxCell id="K_LD3TBMWtCk_dUfeqcV-40" value="统计与埋点" style="rounded=1;whiteSpace=wrap;html=1;fontSize=13;strokeColor=default;" parent="1" vertex="1">
          <mxGeometry x="680" y="864" width="120" height="60" as="geometry" />
        </mxCell>
        <mxCell id="K_LD3TBMWtCk_dUfeqcV-41" value="数据持久化" style="rounded=1;whiteSpace=wrap;html=1;fontSize=13;strokeColor=default;" parent="1" vertex="1">
          <mxGeometry x="823" y="864" width="120" height="60" as="geometry" />
        </mxCell>
        <mxCell id="K_LD3TBMWtCk_dUfeqcV-42" value="基础服务" style="text;html=1;strokeColor=none;fillColor=none;align=center;verticalAlign=middle;whiteSpace=wrap;rounded=0;fontSize=13;" parent="1" vertex="1">
          <mxGeometry x="280" y="879" width="60" height="30" as="geometry" />
        </mxCell>
        <mxCell id="K_LD3TBMWtCk_dUfeqcV-43" value="" style="rounded=1;whiteSpace=wrap;html=1;" parent="1" vertex="1">
          <mxGeometry x="360" y="672" width="870" height="130" as="geometry" />
        </mxCell>
        <mxCell id="K_LD3TBMWtCk_dUfeqcV-44" value="业务能力" style="text;html=1;strokeColor=none;fillColor=none;align=center;verticalAlign=middle;whiteSpace=wrap;rounded=0;fontSize=13;" parent="1" vertex="1">
          <mxGeometry x="280" y="720" width="60" height="30" as="geometry" />
        </mxCell>
        <mxCell id="K_LD3TBMWtCk_dUfeqcV-45" value="HLAccount" style="rounded=1;whiteSpace=wrap;html=1;fontSize=13;strokeColor=#6c8ebf;fillColor=#dae8fc;" parent="1" vertex="1">
          <mxGeometry x="390" y="707" width="120" height="60" as="geometry" />
        </mxCell>
        <mxCell id="K_LD3TBMWtCk_dUfeqcV-47" value="Message" style="rounded=1;whiteSpace=wrap;html=1;fontSize=13;strokeColor=#6c8ebf;fillColor=#dae8fc;" parent="1" vertex="1">
          <mxGeometry x="544" y="707" width="120" height="60" as="geometry" />
        </mxCell>
        <mxCell id="K_LD3TBMWtCk_dUfeqcV-48" value="AudioRoom" style="rounded=1;whiteSpace=wrap;html=1;fontSize=13;strokeColor=#6c8ebf;fillColor=#dae8fc;" parent="1" vertex="1">
          <mxGeometry x="696" y="707" width="120" height="60" as="geometry" />
        </mxCell>
        <mxCell id="K_LD3TBMWtCk_dUfeqcV-49" value="GiftModule" style="rounded=1;whiteSpace=wrap;html=1;fontSize=13;strokeColor=#6c8ebf;fillColor=#dae8fc;" parent="1" vertex="1">
          <mxGeometry x="848" y="707" width="120" height="60" as="geometry" />
        </mxCell>
        <mxCell id="EU10I_Jx_XXT4axmKY_v-6" value="开源库" style="rounded=1;whiteSpace=wrap;html=1;fontSize=13;strokeColor=default;" parent="1" vertex="1">
          <mxGeometry x="396" y="1038" width="138" height="41" as="geometry" />
        </mxCell>
        <mxCell id="5S3hzTSLggSUSEHOukfQ-1" value="Extension" style="rounded=1;whiteSpace=wrap;html=1;fontSize=13;strokeColor=default;" vertex="1" parent="1">
          <mxGeometry x="1036" y="1035" width="148" height="30" as="geometry" />
        </mxCell>
        <mxCell id="5S3hzTSLggSUSEHOukfQ-2" value="开源库" style="rounded=1;whiteSpace=wrap;html=1;fontSize=13;strokeColor=default;" vertex="1" parent="1">
          <mxGeometry x="396" y="986" width="138" height="41" as="geometry" />
        </mxCell>
        <mxCell id="5S3hzTSLggSUSEHOukfQ-3" value="Core" style="text;html=1;strokeColor=none;fillColor=none;align=center;verticalAlign=middle;whiteSpace=wrap;rounded=0;fontSize=13;" vertex="1" parent="1">
          <mxGeometry x="280" y="1018.5" width="60" height="30" as="geometry" />
        </mxCell>
      </root>
    </mxGraphModel>
  </diagram>
</mxfile>
